<svg id="icon-frinchisee" xmlns="http://www.w3.org/2000/svg" width="350" height="350" viewBox="0 0 350 350">
  <rect id="Rettangolo_2946" data-name="Rettangolo 2946" width="350" height="350" fill="none"/>
  <g id="Raggruppa_7367" data-name="Raggruppa 7367" transform="translate(42 29)">
    <g id="Raggruppa_7371" data-name="Raggruppa 7371">
      <path id="Tracciato_4046" data-name="Tracciato 4046" d="M266.019,108.681a108.684,108.684,0,0,0-217.042-8.4A73.558,73.558,0,0,0,1.991,186.611H1.635L3.849,193.2a239.641,239.641,0,0,0,38.617,72c7.941,10.032,23.428,27.009,31.1,27.009,7.441,0,25.09-17.437,39.951-39.071,15.515,19.314,35.211,38.373,43.821,38.373,8.833,0,29.333-20.057,45.019-39.87a359.8,359.8,0,0,0,57.975-108.1l2.156-6.592h-.21a108.454,108.454,0,0,0,3.742-28.269M73.573,282.011C66.935,278.6,34.4,248.928,14.947,194.68l-1.584-4.673a63.561,63.561,0,0,1,35.332-78.9,108.369,108.369,0,0,0,3.7,25.839H52.13l2.214,6.592a362.458,362.458,0,0,0,52.728,101.28c-14.882,22.441-29.1,35-33.5,37.189M250.8,140.346l-1.457,4.414a350.291,350.291,0,0,1-53.484,98.968c-20.157,25.85-34.985,36.51-38.52,37.72-3.533-1.209-18.362-11.869-38.519-37.72A349.979,349.979,0,0,1,66.109,146.95h0l-2.237-6.6a98.682,98.682,0,1,1,186.921,0" fill="#1f2023"/>
      <path id="Tracciato_4047" data-name="Tracciato 4047" d="M116.8,172.825h40.367V138.048H116.8Zm10-24.777h20.367v14.777H126.8Z" fill="#1f2023"/>
      <path id="Tracciato_4048" data-name="Tracciato 4048" d="M106.294,88.762,95.149,111.376l-.516,1.12v1.166a16.507,16.507,0,0,0,6.727,13.283v64.711H213.316V126.94a16.593,16.593,0,0,0,6.725-13.353V112.7L211.32,88.762Zm98.026,10,5.683,15.6a6.541,6.541,0,0,1-13.043-.779v-.65l-3.746-14.175Zm-17.384,15.381a6.538,6.538,0,0,1-13.058-.481h0c0-.026,0-.05,0-.075l-1.464-14.825H182.87Zm-23.06-.325A6.54,6.54,0,0,1,150.8,113.8l1.5-15.04H162.37ZM142.254,98.762l-1.433,14.327-.024.573a6.538,6.538,0,0,1-13.058.482L131.8,98.762Zm-29.739,0h8.946l-3.58,13.547-.166.7v.65a6.537,6.537,0,0,1-13.007.937Zm73.618,82.894H174.705V148.048h11.428Zm10,0V138.048H164.705v43.608H111.36V130.193a16.443,16.443,0,0,0,11.353-4.707,16.486,16.486,0,0,0,23.084,0,16.473,16.473,0,0,0,23.076,0,16.487,16.487,0,0,0,23.084.008,16.477,16.477,0,0,0,11.359,4.7v51.463Z" fill="#1f2023"/>
      <path id="Tracciato_4049" data-name="Tracciato 4049" d="M112.194,46.432h-.141a.909.909,0,0,1-.494-.41.919.919,0,0,1-.092-.611l.489-2.218a.923.923,0,0,1,.873-.733h14.927a.845.845,0,0,1,.611.324.858.858,0,0,1,.165.7l-.464,2.156a.905.905,0,0,1-.611.654h-.116a3.148,3.148,0,0,0-2.011,2.291l-1.991,9.165,11.639-9.727a.984.984,0,0,0,.367-.4.919.919,0,0,0,.067-.525.967.967,0,0,0-.245-.477.9.9,0,0,0-.47-.257.894.894,0,0,1-.519-.415.869.869,0,0,1-.11-.654l.458-2.1a.921.921,0,0,1,.874-.708h13.692a.877.877,0,0,1,.648.336.888.888,0,0,1,.158.336.808.808,0,0,1,0,.366l-.47,2.114a.825.825,0,0,1-.257.44.806.806,0,0,1-.47.214,8.915,8.915,0,0,0-4.393,1.687l-11.554,9.4,8.762,11.9c1.674,2.169,2.444,2.584,4.228,2.609a.884.884,0,0,1,.372.085.8.8,0,0,1,.306.245.929.929,0,0,1,.171.348,1.071,1.071,0,0,1,0,.391l-.489,2.151a.8.8,0,0,1-.287.458.789.789,0,0,1-.513.171h-6.819c-7.527,0-9.709-3.311-15.886-14.847l-1.833,8.413c-.269,1.314.825,2,1.625,2.444a.839.839,0,0,1,.508.972l-.556,2.444a.8.8,0,0,1-.8.611H105.907a.884.884,0,0,1-.373-.073.848.848,0,0,1-.305-.239.927.927,0,0,1-.19-.336,1.038,1.038,0,0,1,0-.385l.465-2.126a.966.966,0,0,1,.818-.709c1.43-.171,2.964-1.075,3.886-5.584l3.593-16.46a2.587,2.587,0,0,0-1.607-3.434m40.124,0a.9.9,0,0,1-.464-.4.852.852,0,0,1-.092-.611l.483-2.2a.943.943,0,0,1,.9-.715h27.843a.826.826,0,0,1,.36.073.761.761,0,0,1,.294.227.873.873,0,0,1,.165.336.864.864,0,0,1,0,.372l-1.833,8.194a.8.8,0,0,1-.8.611h-2.645a.852.852,0,0,1-.349-.061.905.905,0,0,1-.293-.208.811.811,0,0,1-.177-.306.773.773,0,0,1-.031-.354c.123-2.1-.611-3.312-2.914-3.312h-7.234l-1.949,8.86H173.9a.836.836,0,0,1,.361.085.875.875,0,0,1,.287.233.929.929,0,0,1,.159.336.865.865,0,0,1,0,.372l-.825,4.363a.9.9,0,0,1-.287.47.881.881,0,0,1-.513.19H162.3l-1.222,5.633a2.627,2.627,0,0,0,1.6,3.055.761.761,0,0,1,.385.373.78.78,0,0,1,.055.525l-.531,2.444a.844.844,0,0,1-.831.611H149.287a.78.78,0,0,1-.354-.055.94.94,0,0,1-.287-.226.816.816,0,0,1-.159-.69l5.5-24.825a2.692,2.692,0,0,0,.177-1.051,2.554,2.554,0,0,0-.256-1.039,2.625,2.625,0,0,0-1.589-1.387Zm61.289-2.1-1.772,8.022a.815.815,0,0,1-.281.477.8.8,0,0,1-.519.183h-2.444a.846.846,0,0,1-.33-.067.877.877,0,0,1-.275-.195.8.8,0,0,1-.171-.288.742.742,0,0,1-.049-.33v-.171c0-2.609-1.534-4.558-5.242-4.558a11.817,11.817,0,0,0-11.243,11.774,9.867,9.867,0,0,0,10.852,10.925,25.363,25.363,0,0,0,7.619-1.143.924.924,0,0,1,.806.19.843.843,0,0,1,.238.36.816.816,0,0,1,0,.422l-.8,4.148a.927.927,0,0,1-.654.734,37.11,37.11,0,0,1-11.047,1.46c-13.906,0-19.551-8.023-18.69-16.24.819-7.338,5.627-18.068,24.587-18.068a32.784,32.784,0,0,1,8.835,1.222.963.963,0,0,1,.482.434.933.933,0,0,1,.1.611Z" fill="#e4002b"/>
    </g>
  </g>
</svg>
