<svg xmlns="http://www.w3.org/2000/svg" width="100" height="100" viewBox="0 0 100 100">
  <g id="icon-qualità" transform="translate(-165 -2167)">
    <g id="Raggruppa_7993" data-name="Raggruppa 7993">
      <rect id="Rettangolo_3033" data-name="Rettangolo 3033" width="100" height="100" transform="translate(165 2167)" fill="none"/>
      <g id="Raggruppa_8106" data-name="Raggruppa 8106" transform="translate(182 2171.999)">
        <path id="Tracciato_4140" data-name="Tracciato 4140" d="M30.216,36.348l-4.576-4.5-2.8,2.853,7.389,7.262L43.493,28.837l-2.814-2.843Z" fill="#e4002b"/>
        <path id="Tracciato_4141" data-name="Tracciato 4141" d="M45.011,4.557l6.4,10.361,10.361,6.4-2.8,11.848,2.8,11.849-10.361,6.4-6.4,10.361-11.849-2.8-11.848,2.8-6.4-10.361-10.36-6.4,2.8-11.849-2.8-11.848,10.36-6.4,6.4-10.361,11.848,2.8ZM46.9,0,33.162,3.251,19.426,0,12.011,12.011,0,19.427,3.251,33.162,0,46.9l12.011,7.414,5.848,9.472V90.861l15.3-12.116L48.467,90.861V63.786l5.847-9.473L66.325,46.9l-3.25-13.737,3.25-13.735L54.314,12.011Z" fill="#e4002b"/>
        <g id="Raggruppa_8107" data-name="Raggruppa 8107">
          <g id="Raggruppa_8108" data-name="Raggruppa 8108">
            <path id="Tracciato_4142" data-name="Tracciato 4142" d="M33.163,12.059A21.321,21.321,0,1,0,54.484,33.381,21.346,21.346,0,0,0,33.163,12.059m0,38.643A17.321,17.321,0,1,1,50.484,33.381,17.341,17.341,0,0,1,33.163,50.7" fill="#e4002b"/>
          </g>
        </g>
      </g>
    </g>
  </g>
</svg>
