<svg xmlns="http://www.w3.org/2000/svg" width="100" height="100" viewBox="0 0 100 100">
  <g id="icon-responsabilità" transform="translate(-165 -2167)">
    <g id="Raggruppa_7993" data-name="Raggruppa 7993">
      <rect id="Rettangolo_3033" data-name="Rettangolo 3033" width="100" height="100" transform="translate(165 2167)" fill="none"/>
      <g id="Raggruppa_8068" data-name="Raggruppa 8068" transform="translate(170 2176)">
        <g id="Raggruppa_8069" data-name="Raggruppa 8069">
          <path id="Tracciato_4097" data-name="Tracciato 4097" d="M88.92,64.03C88,60.879,84.012,54.922,75.5,54.922H57.477a13.363,13.363,0,0,0-8.814-3.834H38.188a20.375,20.375,0,0,0-16.363-7.669H18.074V37.013H0v41.1H18.074V73.357l17.948,7.579L36.2,81a19.946,19.946,0,0,0,10.621.385L89.444,65.826ZM45.783,77.519a15.944,15.944,0,0,1-8.293-.305l-19.416-8.2v-21.6h3.751A16.219,16.219,0,0,1,35.5,54.2l.594.887h12.57c3.781,0,8.013,3.67,9.185,7.5H33.327v4H62.164v-2a11.953,11.953,0,0,0-1.558-5.668H75.5c5.084,0,7.625,2.69,8.769,4.537Z" fill="#e4002b"/>
          <path id="Tracciato_4098" data-name="Tracciato 4098" d="M49.169,46.4l4,.038.091-9.768a23.941,23.941,0,0,0,20.376-35.6L73.106.12,72.018.05A23.941,23.941,0,0,0,49.275,35.113ZM53.59,13.289A19.978,19.978,0,0,1,70.652,4,19.949,19.949,0,0,1,55.025,32.55l6.162-9.474,6.006-1.381-.9-3.9-4.069.936.55-5.347-3.979-.41-.787,7.648L51.6,30.475A19.948,19.948,0,0,1,53.59,13.289" fill="#e4002b"/>
        </g>
      </g>
    </g>
  </g>
</svg>
