<svg xmlns="http://www.w3.org/2000/svg" width="100" height="100" viewBox="0 0 100 100">
  <g id="icon-originalità" transform="translate(-165 -2167)">
    <g id="Raggruppa_7993" data-name="Raggruppa 7993">
      <rect id="Rettangolo_3033" data-name="Rettangolo 3033" width="100" height="100" transform="translate(165 2167)" fill="none"/>
      <g id="Raggruppa_8070" data-name="Raggruppa 8070" transform="translate(170 2174.999)">
        <g id="Raggruppa_8071" data-name="Raggruppa 8071">
          <path id="Tracciato_4099" data-name="Tracciato 4099" d="M71.37,38.283V44.69H67.62a20.375,20.375,0,0,0-16.365,7.668H40.781a13.363,13.363,0,0,0-8.814,3.834H13.946c-8.515,0-12.5,5.958-13.422,9.108L0,67.1,42.4,82.588l.224.067a19.931,19.931,0,0,0,10.621-.384L71.37,74.626v4.76H89.444v-41.1Zm-19.416,40.2a15.944,15.944,0,0,1-8.293.306L5.178,64.73a9.734,9.734,0,0,1,8.768-4.538H28.838A11.956,11.956,0,0,0,27.28,65.86v2H56.117v-4H31.595c1.174-3.832,5.405-7.5,9.186-7.5h12.57l.594-.887A16.219,16.219,0,0,1,67.62,48.69h3.75v21.6Zm33.49-3.1H75.37v-33.1H85.444Z" fill="#e4002b"/>
          <path id="Tracciato_4100" data-name="Tracciato 4100" d="M19.552,44.228,33.925,36l14.367,8.227-3.384-16.21L57.173,16.894,40.713,15.1,33.923,0,27.134,15.1,10.673,16.9,22.935,28.019Z" fill="#e4002b"/>
        </g>
      </g>
    </g>
  </g>
</svg>
