<svg xmlns="http://www.w3.org/2000/svg" width="100" height="100" viewBox="0 0 100 100">
  <g id="icon-determinazione" transform="translate(-165 -2167)">
    <g id="Raggruppa_7993" data-name="Raggruppa 7993">
      <rect id="Rettangolo_3033" data-name="Rettangolo 3033" width="100" height="100" transform="translate(165 2167)" fill="none"/>
      <g id="Raggruppa_8091" data-name="Raggruppa 8091" transform="translate(177 2172)">
        <g id="Raggruppa_8096" data-name="Raggruppa 8096">
          <path id="Tracciato_4123" data-name="Tracciato 4123" d="M74.45,42.261a6.768,6.768,0,0,0-3.2-2.018,7.168,7.168,0,0,0-5.421-9.648,7.716,7.716,0,0,0-4.9-9.383l8.491-7.523A7.829,7.829,0,0,0,64.7.015a7.769,7.769,0,0,0-5.664,1.954L31.23,26.6l-1.565-9.837-.07-.294c-.068-.215-1.728-5.262-6.108-5.874-4.784-.668-6.838,1.6-7.171,3.936-.213,1.5-2.713,27.925-3.189,32.958L0,58.878,26.84,89.171,40.279,77.517c1.441-.688,10.364-5.047,16.4-10.394l17.19-15.23a6.831,6.831,0,0,0,.582-9.632M71.217,48.9,54.026,64.129c-4.662,4.13-11.45,7.76-14.3,9.2L17.116,47.8c.894-9.463,2.985-31.472,3.16-32.7.124-.866,2.4-.573,2.657-.537,1.642.23,2.608,2.492,2.811,3.02l2.681,16.852L61.687,4.963A3.83,3.83,0,0,1,66.766,10.7L43.024,31.732l2.652,2.994,10.2-9.036.022.025a3.742,3.742,0,0,1,4.963,5.6l-1.084.961,0,0-9.111,8.073,2.652,2.994,9.112-8.073a3.191,3.191,0,0,1,4.232,4.777l-1.836,1.627,0,0-7.273,6.445L60.2,51.117l7.273-6.444A2.823,2.823,0,0,1,71.217,48.9" fill="#e4002b"/>
        </g>
      </g>
    </g>
  </g>
</svg>
