<svg xmlns="http://www.w3.org/2000/svg" width="100" height="100" viewBox="0 0 100 100">
  <g id="icon-esplora" transform="translate(-165 -2167)">
    <g id="Raggruppa_7993" data-name="Raggruppa 7993">
      <rect id="Rettangolo_3033" data-name="Rettangolo 3033" width="100" height="100" transform="translate(165 2167)" fill="none"/>
      <g id="Raggruppa_8102" data-name="Raggruppa 8102" transform="translate(172 2175.001)">
        <g id="Raggruppa_8103" data-name="Raggruppa 8103">
          <path id="Tracciato_4133" data-name="Tracciato 4133" d="M24.971,69.234A2.966,2.966,0,1,0,27.937,72.2a2.966,2.966,0,0,0-2.966-2.966" fill="#e40f2c"/>
          <path id="Tracciato_4134" data-name="Tracciato 4134" d="M85.147,74.955,72.193,62A24.153,24.153,0,0,0,49.942,22.554V5.955A5.963,5.963,0,0,0,43.987,0H5.955A5.963,5.963,0,0,0,0,5.955v71.19A5.963,5.963,0,0,0,5.955,83.1H43.987a5.963,5.963,0,0,0,5.955-5.955V70.278a24.1,24.1,0,0,0,19.425-5.447L82.319,77.783ZM4,5.955A1.957,1.957,0,0,1,5.955,4H43.987a1.957,1.957,0,0,1,1.955,1.955v3.91H4Zm0,7.91H45.942v9.688A24.133,24.133,0,0,0,34.733,61.3H4Zm41.942,63.28A1.957,1.957,0,0,1,43.987,79.1H5.955A1.957,1.957,0,0,1,4,77.145V65.3H38.7a24.1,24.1,0,0,0,7.243,3.977Zm7.8-10.565A20.164,20.164,0,1,1,73.91,46.416,20.186,20.186,0,0,1,53.746,66.58" fill="#e4002b"/>
        </g>
      </g>
    </g>
  </g>
</svg>
