<svg xmlns="http://www.w3.org/2000/svg" width="100" height="100" viewBox="0 0 100 100">
  <g id="icon-generosità" transform="translate(-165 -2167)">
    <g id="Raggruppa_7993" data-name="Raggruppa 7993">
      <rect id="Rettangolo_3033" data-name="Rettangolo 3033" width="100" height="100" transform="translate(165 2167)" fill="none"/>
      <g id="Raggruppa_8088" data-name="Raggruppa 8088" transform="translate(170 2177.999)">
        <g id="Raggruppa_8090" data-name="Raggruppa 8090">
          <path id="Tracciato_4120" data-name="Tracciato 4120" d="M88.92,59.63C88,56.479,84.012,50.521,75.5,50.521H57.477a13.368,13.368,0,0,0-8.814-3.834H38.188a20.377,20.377,0,0,0-16.363-7.668H18.074V32.613H0v41.1H18.074v-4.76l17.949,7.58.175.064a19.935,19.935,0,0,0,10.622.384L89.444,61.426ZM45.783,73.119a15.933,15.933,0,0,1-8.293-.306l-19.416-8.2v-21.6h3.751A16.222,16.222,0,0,1,35.5,49.8l.6.886H48.663c3.781,0,8.013,3.671,9.185,7.5H33.327v4H62.164v-2a11.96,11.96,0,0,0-1.558-5.669H75.5a9.738,9.738,0,0,1,8.77,4.538Z" fill="#e4002b"/>
          <path id="Tracciato_4121" data-name="Tracciato 4121" d="M54.387,37.061l2.9,2.568,2.9-2.566c10.484-9.274,18.765-16.6,18.765-24.572C78.949,5.137,74.084,0,67.118,0c-4.249,0-7.8,2.608-9.831,4.53C55.25,2.608,51.7,0,47.455,0,40.489,0,35.623,5.137,35.623,12.491c0,7.973,8.281,15.3,18.764,24.57M47.455,4c3.164,0,6.367,2.438,8.309,4.718l1.523,1.788,1.522-1.788C60.751,6.438,63.954,4,67.118,4c4.757,0,7.831,3.333,7.831,8.491,0,6.172-7.685,12.969-17.414,21.575l-.248.22-.25-.221c-9.729-8.606-17.414-15.4-17.414-21.574C39.623,7.333,42.7,4,47.455,4" fill="#e4002b"/>
        </g>
      </g>
    </g>
  </g>
</svg>
