<svg xmlns="http://www.w3.org/2000/svg" width="100" height="100" viewBox="0 0 100 100">
  <g id="icon-autenticità" transform="translate(-165 -2167)">
    <g id="Raggruppa_7993" data-name="Raggruppa 7993">
      <rect id="Rettangolo_3033" data-name="Rettangolo 3033" width="100" height="100" transform="translate(165 2167)" fill="none"/>
      <g id="Raggruppa_8109" data-name="Raggruppa 8109" transform="translate(174 2178.001)">
        <g id="Raggruppa_8110" data-name="Raggruppa 8110">
          <path id="Tracciato_4143" data-name="Tracciato 4143" d="M63.751,29.035V0H0V77.693H63.751v-6.57c10.6-4.621,17.386-13.947,17.386-24.1V29.035ZM4,73.693V4H59.751V29.035H43.937a12.724,12.724,0,1,0-1.473,2.981V43.948H19.794l-9,9V67.108H53.007a32.489,32.489,0,0,0,6.744,3.973v2.612ZM42.5,47.948a24.622,24.622,0,0,0,6.228,15.16H14.8V54.6l6.653-6.654Zm34.633-.926c0,8.661-5.994,16.675-15.337,20.6-9.343-3.93-15.336-11.944-15.336-20.6V33.035H77.137Z" fill="#e40f2c"/>
          <path id="Tracciato_4144" data-name="Tracciato 4144" d="M72.394,42.644l-2.828-2.829L58.742,50.639l-4.705-4.7-2.828,2.828L58.742,56.3Z" fill="#e40f2c"/>
        </g>
      </g>
    </g>
  </g>
</svg>
